<?xml version="1.0" encoding="UTF-8" standalone="no"?>
<!DOCTYPE svg PUBLIC "-//W3C//DTD SVG 1.1//EN" "http://www.w3.org/Graphics/SVG/1.1/DTD/svg11.dtd">
<svg width="100%" height="100%" viewBox="0 0 1281 533" version="1.1" xmlns="http://www.w3.org/2000/svg" xmlns:xlink="http://www.w3.org/1999/xlink" xml:space="preserve" style="fill-rule:evenodd;clip-rule:evenodd;stroke-linecap:square;stroke-linejoin:round;stroke-miterlimit:1.5;">
    <g transform="matrix(1,0,0,1,-12633.2,-80)">
        <g transform="matrix(1,0,0,3.63907,12633.4,0)">
            <g transform="matrix(1.00104,0,0,0.305075,-11192.3,-2.97031)">
                <rect x="11180.5" y="81.796" width="1278.79" height="479.734" style="fill:url(#_Linear1);"/>
            </g>
        </g>
        <g transform="matrix(1,0,0,3.63907,12633.4,0)">
            <g transform="matrix(0.99897,0,0,0.99897,1.59162e-12,-0.193359)">
                <g transform="matrix(1,0,0,0.274796,-1837.09,0.295362)">
                    <path d="M1837.09,547.877L1852.85,550.377L1978.21,584.877L2030.21,545.877L2132.35,580.377L2168.85,559.877L2203.71,587.833L2247.35,529.377L2311.85,548.377L2425.85,520.877L2556.85,560.377L2629.35,470.877L2741.85,543.377L2906.93,430.333L3107.35,428.877L3117.09,373.333" style="fill:none;stroke:rgb(0,221,203);stroke-width:0.21px;"/>
                </g>
                <g transform="matrix(1,0,0,0.274796,-1837.09,0.295362)">
                    <path d="M1837.09,593.377L1854.08,550.149L1878.85,581.877L1978.25,584.377L2133.58,580.877L2203.35,588.877L2312.25,547.877L2413.85,599.377L2517.85,603.877L2556.85,560.377L2741.85,543.377L2948.35,599.377L3096.85,582.877L3107.09,429.377" style="fill:none;stroke:rgb(0,221,203);stroke-width:0.21px;"/>
                </g>
                <g transform="matrix(1,0,0,0.274796,-1837.09,0.295362)">
                    <path d="M1878.35,581.877L1855.96,610" style="fill:none;stroke:rgb(0,221,203);stroke-width:0.21px;"/>
                </g>
                <g transform="matrix(1,0,0,0.274796,-1837.09,0.295362)">
                    <path d="M1977.96,586.377L1934.96,610" style="fill:none;stroke:rgb(0,221,203);stroke-width:0.21px;"/>
                </g>
                <g transform="matrix(1,0,0,0.274796,-1837.09,0.295362)">
                    <path d="M1878.35,581.877L1908.46,610" style="fill:none;stroke:rgb(0,221,203);stroke-width:0.21px;"/>
                </g>
                <g transform="matrix(1,0,0,0.274796,-1837.09,0.295362)">
                    <path d="M2134.96,581.877L2012.96,610" style="fill:none;stroke:rgb(0,221,203);stroke-width:0.21px;"/>
                </g>
                <g transform="matrix(1,0,0,0.274796,-1837.09,0.295362)">
                    <path d="M2948.83,599L3107.55,429.322" style="fill:none;stroke:rgb(0,221,203);stroke-width:0.21px;"/>
                </g>
                <g transform="matrix(1,0,0,0.274796,-1837.09,0.295362)">
                    <path d="M2906.83,430.261L2950.5,610" style="fill:none;stroke:rgb(0,221,203);stroke-width:0.21px;"/>
                </g>
                <g transform="matrix(1,0,0,0.274796,-1837.09,0.295362)">
                    <path d="M2778.16,610L2741.66,544.178" style="fill:none;stroke:rgb(0,221,203);stroke-width:0.21px;"/>
                </g>
                <g transform="matrix(1,0,0,0.274796,-1837.09,0.295362)">
                    <path d="M2557.7,561.397L2723.7,610.26" style="fill:none;stroke:rgb(0,221,203);stroke-width:0.21px;"/>
                </g>
                <g transform="matrix(1,0,0,0.274796,-1837.09,0.295362)">
                    <path d="M2517.7,601.916L2608.7,610.26" style="fill:none;stroke:rgb(0,221,203);stroke-width:0.21px;"/>
                </g>
                <g transform="matrix(1,0,0,0.274796,-1837.09,0.295362)">
                    <path d="M2382.7,610L2414.2,598.916" style="fill:none;stroke:rgb(0,221,203);stroke-width:0.21px;"/>
                </g>
                <g transform="matrix(1,0,0,0.274796,-1837.09,0.295362)">
                    <path d="M2426.2,523.877L2414.2,598.916" style="fill:none;stroke:rgb(0,221,203);stroke-width:0.21px;"/>
                </g>
                <g transform="matrix(1,0,0,0.274796,-1837.09,0.295362)">
                    <path d="M2203.81,587.833L2274.81,610" style="fill:none;stroke:rgb(0,221,203);stroke-width:0.21px;"/>
                </g>
                <g transform="matrix(1,0,0,0.274796,-1837.09,0.295362)">
                    <path d="M2313.31,547.677L2336.81,610" style="fill:none;stroke:rgb(0,221,203);stroke-width:0.21px;"/>
                </g>
                <g transform="matrix(1,0,0,0.274796,-1837.09,0.295362)">
                    <path d="M2132.96,580.877L2147.31,610" style="fill:none;stroke:rgb(0,221,203);stroke-width:0.21px;"/>
                </g>
                <g transform="matrix(1,0,0,0.274796,-1837.09,0.295362)">
                    <path d="M1977.96,586.377L1989.46,610" style="fill:none;stroke:rgb(0,221,203);stroke-width:0.21px;"/>
                </g>
                <g transform="matrix(1,0,0,0.274796,-1837.09,0.295362)">
                    <path d="M2203.31,588.377L2160.31,610" style="fill:none;stroke:rgb(0,221,203);stroke-width:0.21px;"/>
                </g>
                <g transform="matrix(1,0,0,0.274796,-1837.09,0.295362)">
                    <path d="M3098.55,582.322L3118.55,572.322" style="fill:none;stroke:rgb(0,221,203);stroke-width:0.21px;"/>
                </g>
                <g transform="matrix(1,0,0,0.274796,-1837.09,0.295362)">
                    <path d="M3097.55,583.322L3090.05,610.322" style="fill:none;stroke:rgb(0,221,203);stroke-width:0.21px;"/>
                </g>
                <g transform="matrix(1,0,0,0.274796,-1734.59,20.4929)">
                    <circle cx="1927.35" cy="470.877" r="4.5" style="fill:rgb(0,170,156);"/>
                </g>
                <g transform="matrix(1,0,0,0.274796,-1886.09,30.7977)">
                    <circle cx="1927.35" cy="470.877" r="4.5" style="fill:rgb(0,170,156);"/>
                </g>
                <g transform="matrix(1,0,0,0.274796,-1911.59,22.1416)">
                    <circle cx="1927.35" cy="470.877" r="4.5" style="fill:rgb(0,170,156);"/>
                </g>
                <g transform="matrix(1,0,0,0.274796,-1787.09,31.4847)">
                    <circle cx="1927.35" cy="470.877" r="4.5" style="fill:rgb(0,170,156);"/>
                </g>
                <g transform="matrix(1,0,0,0.274796,-1632.09,30.3855)">
                    <circle cx="1927.35" cy="470.877" r="4.5" style="fill:rgb(0,170,156);"/>
                </g>
                <g transform="matrix(1,0,0,0.274796,-1452.59,21.592)">
                    <circle cx="1927.35" cy="470.877" r="4.5" style="fill:rgb(0,170,156);"/>
                </g>
                <g transform="matrix(1,0,0,0.274796,-1595.59,24.6148)">
                    <circle cx="1927.35" cy="470.877" r="4.5" style="fill:rgb(0,170,156);"/>
                </g>
                <g transform="matrix(1,0,0,0.274796,-1561.09,32.7213)">
                    <circle cx="1927.35" cy="470.877" r="4.5" style="fill:rgb(0,170,156);"/>
                </g>
                <g transform="matrix(1,0,0,0.274796,-1517.59,16.0961)">
                    <circle cx="1927.35" cy="470.877" r="4.5" style="fill:rgb(0,170,156);"/>
                </g>
                <g transform="matrix(1,0,0,0.274796,-1338.59,14.0352)">
                    <circle cx="1927.35" cy="470.877" r="4.5" style="fill:rgb(0,170,156);"/>
                </g>
                <g transform="matrix(1,0,0,0.274796,-1350.59,35.1944)">
                    <circle cx="1927.35" cy="470.877" r="4.5" style="fill:rgb(0,170,156);"/>
                </g>
                <g transform="matrix(1,0,0,0.274796,-1207.59,24.8896)">
                    <circle cx="1927.35" cy="470.877" r="4.5" style="fill:rgb(0,170,156);"/>
                </g>
                <g transform="matrix(1,0,0,0.274796,-1135.09,0.295368)">
                    <circle cx="1927.35" cy="470.877" r="4.5" style="fill:rgb(0,170,156);"/>
                </g>
                <g transform="matrix(1,0,0,0.274796,-1246.59,36.1562)">
                    <circle cx="1927.35" cy="470.877" r="4.5" style="fill:rgb(0,170,156);"/>
                </g>
                <g transform="matrix(1,0,0,0.274796,-1022.59,20.2181)">
                    <circle cx="1927.35" cy="470.877" r="4.5" style="fill:rgb(0,170,156);"/>
                </g>
                <g transform="matrix(1,0,0,0.274796,-858.092,-11.1087)">
                    <circle cx="1927.35" cy="470.877" r="4.5" style="fill:rgb(0,170,156);"/>
                </g>
                <g transform="matrix(1,0,0,0.274796,-657.092,-11.2461)">
                    <circle cx="1927.35" cy="470.877" r="4.5" style="fill:rgb(0,170,156);"/>
                </g>
                <g transform="matrix(1,0,0,0.274796,-667.592,31.0725)">
                    <circle cx="1927.35" cy="470.877" r="4.5" style="fill:rgb(0,170,156);"/>
                </g>
                <g transform="matrix(1,0,0,0.274796,-816.092,35.6066)">
                    <circle cx="1927.35" cy="470.877" r="4.5" style="fill:rgb(0,170,156);"/>
                </g>
            </g>
        </g>
    </g>
    <defs>
        <linearGradient id="_Linear1" x1="0" y1="0" x2="1" y2="0" gradientUnits="userSpaceOnUse" gradientTransform="matrix(3.2612e-14,479.734,-532.595,2.93752e-14,11819.9,81.7962)"><stop offset="0" style="stop-color:rgb(0,157,144);stop-opacity:1"/><stop offset="1" style="stop-color:rgb(0,92,84);stop-opacity:1"/></linearGradient>
    </defs>
</svg>
